<?xml version="1.0" encoding="UTF-8" standalone="no"?>
<svg
   xmlns:dc="http://purl.org/dc/elements/1.1/"
   xmlns:cc="http://creativecommons.org/ns#"
   xmlns:rdf="http://www.w3.org/1999/02/22-rdf-syntax-ns#"
   xmlns:svg="http://www.w3.org/2000/svg"
   xmlns="http://www.w3.org/2000/svg"
   xmlns:sodipodi="http://sodipodi.sourceforge.net/DTD/sodipodi-0.dtd"
   xmlns:inkscape="http://www.inkscape.org/namespaces/inkscape"
   inkscape:version="1.0 (4035a4f, 2020-05-01)"
   height="2836.3799"
   width="2493.1799"
   sodipodi:docname="tractorbeam.svg"
   version="1.1"
   viewBox="0 0 2493.1799 2836.3799"
   id="Logo">
  <metadata
     id="metadata270">
    <rdf:RDF>
      <cc:Work
         rdf:about="">
        <dc:format>image/svg+xml</dc:format>
        <dc:type
           rdf:resource="http://purl.org/dc/dcmitype/StillImage" />
        <dc:title></dc:title>
      </cc:Work>
    </rdf:RDF>
  </metadata>
  <sodipodi:namedview
     inkscape:current-layer="Logo"
     inkscape:window-maximized="0"
     inkscape:window-y="76"
     inkscape:window-x="594"
     inkscape:cy="1401.27"
     inkscape:cx="1252"
     inkscape:zoom="0.28"
     fit-margin-bottom="0"
     fit-margin-right="0"
     fit-margin-left="0"
     fit-margin-top="0"
     showgrid="false"
     id="namedview268"
     inkscape:window-height="1392"
     inkscape:window-width="1716"
     inkscape:pageshadow="2"
     inkscape:pageopacity="0"
     guidetolerance="10"
     gridtolerance="10"
     objecttolerance="10"
     borderopacity="1"
     bordercolor="#666666"
     pagecolor="#ffffff" />
  <defs
     id="defs142">
    <style
       id="style140">.cls-1,.cls-2{fill:#37424b;}.cls-2{stroke:#222;stroke-width:0.42px;}</style>
  </defs>
  <g
     transform="translate(-548,-398.73)"
     id="Saucer">
    <path
       id="path144"
       d="M 930,899 A 24.22,24.22 0 1 1 954.37,874.69 24.19,24.19 0 0 1 930,899 Z m 0,0"
       class="cls-1" />
    <path
       id="path146"
       d="M 930,899 A 24.22,24.22 0 1 1 954.37,874.69 24.15,24.15 0 0 1 930,899 Z m 0,0"
       class="cls-2" />
    <path
       id="path148"
       d="m 1275.08,808.87 a 24.22,24.22 0 1 1 24.37,-24.31 24.29,24.29 0 0 1 -24.37,24.31 z m 0,0"
       class="cls-1" />
    <path
       id="path150"
       d="m 1275.08,808.91 a 24.25,24.25 0 1 1 24.37,-24.37 24.31,24.31 0 0 1 -24.37,24.37 z m 0,0"
       class="cls-2" />
    <path
       id="path152"
       d="m 1618.49,775.86 a 24.22,24.22 0 1 1 24.12,-24.12 24.24,24.24 0 0 1 -24.12,24.12 z m 0,0"
       class="cls-1" />
    <path
       id="path154"
       d="m 1618.49,775.84 a 24.22,24.22 0 1 1 24.12,-24.06 24.19,24.19 0 0 1 -24.12,24.06 z m 0,0"
       class="cls-2" />
    <path
       id="path156"
       d="m 1972.07,775.86 a 24.22,24.22 0 1 1 24.31,-24.12 24.41,24.41 0 0 1 -24.31,24.12 z m 0,0"
       class="cls-1" />
    <path
       id="path158"
       d="m 1972.07,775.84 a 24.22,24.22 0 1 1 24.31,-24.06 24.36,24.36 0 0 1 -24.31,24.06 z m 0,0"
       class="cls-2" />
    <path
       id="path160"
       d="m 2311.9,808.87 a 24.22,24.22 0 1 1 24.31,-24.31 24.24,24.24 0 0 1 -24.31,24.31 z m 0,0"
       class="cls-1" />
    <path
       id="path162"
       d="m 2311.9,808.91 a 24.25,24.25 0 1 1 24.31,-24.37 24.25,24.25 0 0 1 -24.31,24.37 z m 0,0"
       class="cls-2" />
    <path
       id="path164"
       d="m 2669.06,892 a 24.22,24.22 0 1 1 24.31,-24.13 24.2,24.2 0 0 1 -24.31,24.13 z m 0,0"
       class="cls-1" />
    <path
       id="path166"
       d="m 2669.06,892 a 24.22,24.22 0 1 1 24.31,-24 24.19,24.19 0 0 1 -24.31,24 z m 0,0"
       class="cls-2" />
    <path
       id="path168"
       d="M 2260.32,694.42 C 2216.21,522.35 2025.56,399 1800,399 1574.44,399 1384,522.39 1339.68,694.46 1006.39,740 745.85,835.15 745.85,967.68 a 60.05,60.05 0 0 0 0.74,9.44 C 761,1129 1121.33,1230.14 1533,1261 c 3.57,-13.2 7.21,-26.46 10.79,-40 -378.32,-26 -644.91,-107.47 -728.51,-195.2 99,-121.24 501.28,-205.58 984.74,-205.58 484.14,0 886.65,82.92 987.15,202.68 -80.27,88.9 -348.28,171.82 -731,198.1 3.64,13.52 7.21,26.78 10.85,40 420.28,-31.52 787.13,-136.16 787.13,-293.3 0,-132.53 -260.54,-227.72 -593.83,-273.26 z M 1800,440.42 c 199,0 368.27,102.41 415.71,247.46 -77.86,-9.38 -158.56,-15.67 -241.48,-19.49 -15.18,-0.74 -30.35,-1.24 -45.28,-1.92 -10.12,-0.24 -20.3,-0.74 -30.42,-1 -32.76,-1 -65.77,-1.42 -98.53,-1.42 -32.76,0 -65.58,0.43 -98.59,1.42 -10.12,0.24 -20,0.74 -30.11,1 -15.18,0.44 -30.35,1.18 -45.53,1.92 -82.92,3.82 -163.68,10.11 -241.3,19.25 C 1432,542.83 1601.15,440.42 1800,440.42 Z M 2807.39,983.35 C 2681.83,860 2285.86,778.51 1800,778.51 c -483.95,0 -878.93,82.19 -1004.3,206.81 -5.25,-7.28 -8.15,-12.09 -8.15,-17.64 0,-90.08 205.82,-184.35 542.75,-231.55 l -0.25,0.43 29.12,-3.58 c 138.33,-18.07 286.59,-27.27 440.83,-27.27 154.24,0 302.68,9.2 441,27.27 l 28.94,3.58 v -0.43 c 336.68,47.2 542.74,141.47 542.74,231.55 0,5.55 -1.48,9.93 -5.3,15.67 z m 0,0"
       class="cls-1" />
    <path
       id="path170"
       d="M 2260.32,694.4 C 2216.21,522.33 2025.56,398.94 1800,398.94 c -225.56,0 -416,123.39 -460.32,295.46 -333.29,45.53 -593.83,140.73 -593.83,273.32 a 59.3,59.3 0 0 0 0.74,9.38 c 14.41,151.83 374.74,253.08 786.41,283.9 3.57,-13.27 7.21,-26.53 10.79,-40 -378.32,-26 -644.91,-107.48 -728.51,-195.22 99,-121.23 501.28,-205.57 984.74,-205.57 484.14,0 886.65,82.92 987.15,202.68 -80.27,89 -348.28,171.82 -731,198.11 3.64,13.51 7.21,26.77 10.85,40 420.28,-31.59 787.13,-136.17 787.13,-293.31 0,-132.59 -260.54,-227.79 -593.83,-273.32 z M 1800,440.4 c 199,0 368.27,102.41 415.71,247.52 -77.86,-9.44 -158.56,-15.67 -241.48,-19.55 -15.18,-0.75 -30.35,-1.18 -45.28,-1.92 -10.12,-0.24 -20.3,-0.74 -30.42,-1 -32.76,-0.93 -65.77,-1.42 -98.53,-1.42 -32.76,0 -65.58,0.49 -98.59,1.42 -10.12,0.24 -20,0.74 -30.11,1 -15.18,0.5 -30.35,1.17 -45.53,1.92 -82.92,3.88 -163.68,10.11 -241.3,19.31 C 1432,542.81 1601.15,440.4 1800,440.4 Z m 1007.39,543 C 2681.83,860 2285.86,778.5 1800,778.5 c -483.95,0 -878.93,82.17 -1004.3,206.8 -5.25,-7.22 -8.15,-12 -8.15,-17.58 0,-90.14 205.82,-184.35 542.75,-231.61 l -0.25,0.49 29.12,-3.64 c 138.33,-18.08 286.59,-27.21 440.83,-27.21 154.24,0 302.68,9.13 441,27.21 l 29,3.64 v -0.49 c 336.68,47.26 542.74,141.47 542.74,231.61 0,5.55 -1.48,9.87 -5.3,15.67 z m 0,0"
       class="cls-2" />
    <path
       id="path172"
       d="M 1800,2203.1 A 1180.94,1180.94 0 0 1 1311.48,2098 l -16.41,-7.47 4.82,-17.4 c 26.28,-91.31 53,-182.43 80,-274.48 71.33,-242.91 145.12,-493.83 217.67,-786.15 l 3.83,-15.91 h 397.39 l 3.88,15.91 c 72.56,292.32 146.29,543.49 217.61,786.39 27,92 53.74,182.93 80,274.24 l 4.81,17.4 -16.35,7.47 C 2134,2167.68 1969.67,2203.1 1800,2203.1 Z m -455,-135.67 a 1145.92,1145.92 0 0 0 910,0 c -24.38,-85.58 -49.42,-170.66 -74.72,-256.91 -70.15,-238.83 -142.7,-485.62 -214.27,-772.2 h -332.1 c -71.57,286.58 -143.87,533.12 -214,772 -25.55,86.25 -50.41,171.58 -75,257.16 z m 0,0"
       class="cls-1" />
    <path
       id="path174"
       d="M 1800,2203.08 A 1180.94,1180.94 0 0 1 1311.48,2098 l -16.41,-7.47 4.82,-17.34 c 26.28,-91.37 53,-182.43 80,-274.48 71.33,-243 145.12,-493.83 217.67,-786.21 l 3.83,-15.86 h 397.39 l 3.88,15.86 c 72.57,292.39 146.34,543.5 217.62,786.4 27,92.11 53.74,182.93 80,274.3 l 4.81,17.34 -16.35,7.47 C 2134,2167.66 1969.67,2203.08 1800,2203.08 Z m -455,-135.67 a 1145.92,1145.92 0 0 0 910,0 c -24.38,-85.58 -49.42,-170.66 -74.72,-256.91 -70.15,-238.83 -142.7,-485.62 -214.27,-772.2 h -332.1 c -71.57,286.58 -143.87,533.12 -214,772 -25.55,86.26 -50.41,171.58 -75,257.16 z m 0,0"
       class="cls-2" />
  </g>
  <path
     id="path177"
     d="m 11.9,1950.04 h 241.92 a 237.16,237.16 0 0 1 -11.88,42.66 h -90.72 v 316.44 h -48.6 V 1992.7 H 0 a 244.76,244.76 0 0 1 11.9,-42.66 z"
     class="cls-1" />
  <path
     id="path179"
     d="m 326.19,2059.12 a 236.86,236.86 0 0 1 48.6,4.86 216.62,216.62 0 0 1 -11.34,41 281.18,281.18 0 0 0 -37.26,-2.7 163.58,163.58 0 0 0 -20,1.35 153.81,153.81 0 0 0 -17.28,3 l -5.91,1.64 q -4.34,51.32 -4.32,78.3 v 122.58 h -49.15 v -122.59 a 712.39,712.39 0 0 1 8.64,-111.78 247.78,247.78 0 0 1 88.02,-15.66 z"
     class="cls-1" />
  <path
     id="path181"
     d="m 577.82,2074.78 q 8.64,49.69 8.64,111.78 0,63.18 -8.64,111.78 -41,16.2 -87.48,16.2 -47,0 -88,-16.2 -8.64,-26.45 -8.64,-66.42 a 270,270 0 0 1 2.16,-34.56 q 2.16,-16.73 4.32,-24.3 l 2.16,-8.1 q 41,-16.2 88,-16.2 a 251.42,251.42 0 0 1 45.9,4.32 l -2.7,-44.82 a 166.78,166.78 0 0 0 -43.2,-5.94 314.47,314.47 0 0 0 -93.42,14 q 2.7,-25.37 5.4,-41.58 a 253.68,253.68 0 0 1 175.5,0 z m -87.48,196.56 a 141.9,141.9 0 0 0 21.06,-1.62 q 10.8,-1.62 16.74,-2.7 l 5.4,-1.62 q 3.24,-39.4 3.78,-67.5 a 185.11,185.11 0 0 0 -47,-5.94 170.47,170.47 0 0 0 -20.25,1.35 153.38,153.38 0 0 0 -17.55,3 l -6.48,1.62 q -3.24,14.05 -3.24,34 0,8.66 0.81,17 0.81,8.34 1.35,12.69 l 1.08,3.78 a 178.25,178.25 0 0 0 44.3,5.94 z"
     class="cls-1" />
  <path
     id="path183"
     d="m 724.16,2059.12 a 246.43,246.43 0 0 1 87.48,15.66 q 4.3,27 5.4,41.58 a 312.73,312.73 0 0 0 -92.88,-14 163.58,163.58 0 0 0 -20,1.35 153.81,153.81 0 0 0 -17.28,3 l -5.88,1.56 q -4.34,51.32 -4.32,78.3 l 4.32,78.84 q 19.44,6 43.2,5.94 49.66,0 92.88,-15.12 -1.1,15.68 -5.4,42.12 -41.06,16.2 -87.48,16.2 -47,0 -88,-16.2 a 698.89,698.89 0 0 1 -8.64,-111.78 712.39,712.39 0 0 1 8.64,-111.78 247.78,247.78 0 0 1 87.96,-15.67 z"
     class="cls-1" />
  <path
     id="path185"
     d="m 990.37,2271.34 q 28.62,0 64.26,-8.64 a 261.83,261.83 0 0 1 -12.42,46.44 264.35,264.35 0 0 1 -51.84,5.4 q -46.44,0 -87.48,-16.2 -8.64,-48.6 -8.64,-111.78 v -76.68 h -54.54 a 237.62,237.62 0 0 1 11.88,-42.66 h 42.66 v -53.46 a 210.69,210.69 0 0 1 48.6,-13 v 66.51 h 94 q -4.32,24.86 -11.88,42.66 h -82.08 v 76.68 l 4.32,78.84 a 170.13,170.13 0 0 0 43.16,5.89 z"
     class="cls-1" />
  <path
     id="path187"
     d="m 1260.91,2074.78 q 8.64,49.69 8.64,111.78 0,63.18 -8.64,111.78 -41,16.2 -88,16.2 -46.44,0 -87.48,-16.2 -8.64,-48.6 -8.64,-111.78 0,-62.09 8.64,-111.78 a 253.68,253.68 0 0 1 175.5,0 z m -44.82,190.62 q 4.32,-51.28 4.32,-78.84 l -4.32,-78.3 a 166.78,166.78 0 0 0 -43.2,-5.94 163.84,163.84 0 0 0 -20,1.35 154.22,154.22 0 0 0 -17.28,3 l -5.94,1.62 q -3.78,51.32 -3.78,78.3 l 3.78,78.84 a 170.13,170.13 0 0 0 43.2,5.94 135.34,135.34 0 0 0 20,-1.62 q 10.8,-1.62 17.28,-2.7 z"
     class="cls-1" />
  <path
     id="path189"
     d="m 1410.49,2059.12 a 236.72,236.72 0 0 1 48.6,4.86 215.15,215.15 0 0 1 -11.34,41 280.94,280.94 0 0 0 -37.26,-2.7 163.71,163.71 0 0 0 -20,1.35 153.81,153.81 0 0 0 -17.28,3 l -5.94,1.62 q -4.33,51.32 -4.32,78.3 v 122.58 h -49.14 v -122.57 a 713.59,713.59 0 0 1 8.64,-111.78 247.82,247.82 0 0 1 88.04,-15.66 z"
     class="cls-1" />
  <path
     id="path191"
     d="m 1671.31,2074.78 q 8.63,49.69 8.64,111.78 0,63.18 -8.64,111.78 -41.05,16.2 -87.48,16.2 -47,0 -88,-16.2 -7.57,-45.89 -8.64,-106.92 v -227.88 a 239.72,239.72 0 0 1 49.14,-13 v 112.86 a 272.1,272.1 0 0 1 47.52,-4.32 246.43,246.43 0 0 1 87.46,15.7 z M 1627,2265.4 q 4.3,-51.28 4.32,-78.84 l -4.32,-78.29 a 166.84,166.84 0 0 0 -43.2,-5.94 231.27,231.27 0 0 0 -47.52,4.86 v 79.38 l 4.32,78.84 a 165.87,165.87 0 0 0 43.2,5.94 135.55,135.55 0 0 0 20,-1.62 q 10.79,-1.62 17.28,-2.7 z"
     class="cls-1" />
  <path
     id="path193"
     d="m 1906.75,2074.78 q 8.63,49.69 8.63,111.78 v 18.36 h -143.09 l 3.77,60.48 q 19.46,6 43.2,5.94 49.68,0 92.88,-15.12 -1.08,15.68 -5.39,42.12 -41.05,16.2 -87.49,16.2 -47,0 -88,-16.2 a 698.87,698.87 0 0 1 -8.65,-111.78 712.38,712.38 0 0 1 8.65,-111.78 253.68,253.68 0 0 1 175.5,0 z m -87.49,27.54 a 163.55,163.55 0 0 0 -20,1.35 128.85,128.85 0 0 0 -16.75,3 l -6.48,1.62 q -2.7,28.1 -3.77,54 h 93.42 l -3.25,-54 a 171,171 0 0 0 -43.17,-5.97 z"
     class="cls-1" />
  <path
     id="path195"
     d="m 2137.33,2074.78 q 8.63,49.69 8.64,111.78 0,63.18 -8.64,111.78 -41.05,16.2 -87.48,16.2 -47,0 -88,-16.2 -8.65,-26.45 -8.64,-66.42 a 268.21,268.21 0 0 1 2.16,-34.56 q 2.15,-16.73 4.32,-24.3 l 2.16,-8.1 q 41,-16.2 88,-16.2 a 251.5,251.5 0 0 1 45.9,4.32 l -2.7,-44.82 a 166.84,166.84 0 0 0 -43.2,-5.94 314.42,314.42 0 0 0 -93.42,14 q 2.68,-25.37 5.4,-41.58 a 253.68,253.68 0 0 1 175.5,0 z m -87.48,196.56 a 142.11,142.11 0 0 0 21.06,-1.62 q 10.78,-1.62 16.74,-2.7 l 5.4,-1.62 q 3.24,-39.4 3.78,-67.5 a 185.11,185.11 0 0 0 -47,-5.94 170.2,170.2 0 0 0 -20.25,1.35 153,153 0 0 0 -17.55,3 l -6.48,1.62 q -3.24,14.05 -3.24,34 0,8.66 0.81,17 c 0.54,5.59 1,9.82 1.35,12.69 l 1.08,3.78 a 178.19,178.19 0 0 0 44.3,5.94 z"
     class="cls-1" />
  <path
     id="path197"
     d="m 2484.54,2074.78 q 8.63,43.74 8.64,111.78 v 122.58 H 2444 v -122.58 q 0,-17.26 -1.08,-37 -1.08,-19.74 -2.16,-30.51 l -1.08,-10.8 q -26.46,-4.3 -74,-5.94 v 206.82 h -48.6 v -206.81 q -21.06,0.55 -39.42,2.16 -18.36,1.61 -26.46,2.7 l -8.1,1.08 a 715.94,715.94 0 0 0 -4.32,78.3 v 122.58 h -48.6 v -122.58 q 0,-32.92 2.16,-60.75 2.16,-27.83 4.32,-39.15 l 2.16,-11.88 q 49.68,-15.65 142.56,-15.66 a 688.16,688.16 0 0 1 76.95,4.05 q 35.91,4 51,7.83 z"
     class="cls-1" />
  <path
     id="path199"
     d="m 343,2516.79 q 0,34.29 -17.34,53.91 -17.34,19.62 -48.19,19.63 -31.55,0 -48.68,-19.29 -17.13,-19.29 -17.14,-54.44 0,-34.86 17.19,-54 17.19,-19.14 48.82,-19.19 30.76,0 48,19.53 17.24,19.53 17.34,53.85 z m -113.77,0 q 0,29 12.35,44 12.35,15 35.89,15 23.73,0 35.84,-14.94 12.11,-14.94 12.11,-44.05 0,-28.8 -12.06,-43.7 -12.06,-14.9 -35.7,-14.89 -23.73,0 -36.08,15 -12.35,15 -12.38,43.58 z"
     class="cls-1" />
  <path
     id="path201"
     d="m 422.17,2590.33 a 46.4,46.4 0 0 1 -19.1,-3.86 36,36 0 0 1 -14.5,-11.86 h -1.17 a 143.72,143.72 0 0 1 1.17,17.77 v 44 h -16.21 v -155.04 h 13.18 l 2.25,14.65 h 0.78 a 37.64,37.64 0 0 1 14.55,-12.72 44.17,44.17 0 0 1 19,-3.91 q 21.29,0 32.86,14.55 11.57,14.55 11.57,40.82 0,26.37 -11.77,41 -11.77,14.63 -32.61,14.6 z m -2.35,-97.17 q -16.41,0 -23.73,9.08 -7.32,9.08 -7.52,28.91 v 3.61 q 0,22.56 7.52,32.28 7.52,9.72 24.12,9.71 13.88,0 21.73,-11.23 7.85,-11.23 7.86,-30.95 0,-20 -7.86,-30.72 -7.86,-10.72 -22.12,-10.69 z"
     class="cls-1" />
  <path
     id="path203"
     d="m 540.13,2590.33 q -23.73,0 -37.45,-14.45 -13.72,-14.45 -13.68,-40.14 0,-25.87 12.75,-41.11 12.75,-15.24 34.23,-15.24 20.11,0 31.83,13.23 11.72,13.23 11.72,34.92 v 10.25 H 505.8 q 0.48,18.84 9.52,28.61 9.04,9.77 25.44,9.77 a 86.18,86.18 0 0 0 34.18,-7.23 v 14.45 a 85.86,85.86 0 0 1 -16.26,5.33 91.71,91.71 0 0 1 -18.55,1.61 z m -4.39,-97.36 q -12.88,0 -20.56,8.39 -7.68,8.39 -9,23.25 h 56 q 0,-15.33 -6.84,-23.49 -6.84,-8.16 -19.6,-8.15 z"
     class="cls-1" />
  <path
     id="path205"
     d="m 680.37,2588.38 v -69.24 q 0,-13.1 -6,-19.53 -6,-6.43 -18.65,-6.45 -16.8,0 -24.61,9.08 -7.81,9.08 -7.81,30 v 56.16 h -16.21 v -107 h 13.18 l 2.64,14.65 h 0.78 a 33,33 0 0 1 14,-12.25 45.36,45.36 0 0 1 20,-4.35 q 19.33,0 29.1,9.33 9.77,9.33 9.77,29.83 v 69.83 z"
     class="cls-1" />
  <path
     id="path207"
     d="m 850.88,2559.18 q 0,14.94 -11.14,23 -11.14,8.06 -31.25,8.11 -21.29,0 -33.2,-6.74 v -15 a 79.48,79.48 0 0 0 16.55,6.15 69.1,69.1 0 0 0 17,2.25 q 12.7,0 19.54,-4 6.84,-4 6.83,-12.36 0,-6.24 -5.42,-10.69 -5.42,-4.45 -21.14,-10.5 -14.94,-5.57 -21.24,-9.71 a 29,29 0 0 1 -9.38,-9.43 24.56,24.56 0 0 1 -3.07,-12.6 24,24 0 0 1 10.64,-20.65 q 10.65,-7.58 29.2,-7.57 a 85.36,85.36 0 0 1 33.79,7 l -5.76,13.19 q -16.11,-6.65 -29.2,-6.64 -11.52,0 -17.38,3.61 -5.86,3.61 -5.86,10 a 12.14,12.14 0 0 0 2.19,7.32 21.82,21.82 0 0 0 7.09,5.77 q 4.88,2.73 18.75,7.91 19,6.93 25.73,14 6.73,7.07 6.73,17.58 z"
     class="cls-1" />
  <path
     id="path209"
     d="m 969.63,2534.76 q 0,26.18 -13.19,40.87 -13.19,14.69 -36.42,14.7 a 48.27,48.27 0 0 1 -25.49,-6.74 44.5,44.5 0 0 1 -17.19,-19.34 q -6.06,-12.58 -6,-29.49 0,-26.17 13.08,-40.77 13.08,-14.6 36.33,-14.6 22.46,0 35.69,14.94 13.23,14.94 13.19,40.43 z m -81.55,0 q 0,20.51 8.21,31.25 8.21,10.74 24.12,10.74 15.91,0 24.17,-10.69 8.26,-10.69 8.25,-31.3 0,-20.4 -8.25,-31 -8.25,-10.6 -24.37,-10.6 -15.92,0 -24,10.45 -8.08,10.45 -8.13,31.15 z"
     class="cls-1" />
  <path
     id="path211"
     d="m 1013.28,2481.34 v 69.44 q 0,13.08 6,19.53 6,6.45 18.65,6.44 16.8,0 24.56,-9.18 7.76,-9.18 7.76,-30 v -56.25 h 16.21 v 107 H 1073 l -2.34,-14.36 h -0.88 a 32.29,32.29 0 0 1 -13.82,12.11 46.41,46.41 0 0 1 -20.16,4.2 q -19.53,0 -29.25,-9.28 -9.72,-9.28 -9.72,-29.69 v -70 z"
     class="cls-1" />
  <path
     id="path213"
     d="m 1169.63,2479.39 a 63.55,63.55 0 0 1 12.79,1.17 l -2.25,15 a 55.53,55.53 0 0 0 -11.71,-1.46 q -13,0 -22.22,10.54 -9.22,10.54 -9.23,26.27 v 57.43 h -16.21 v -107 h 13.38 l 1.85,19.83 h 0.78 a 47,47 0 0 1 14.36,-16.11 32.29,32.29 0 0 1 18.46,-5.67 z"
     class="cls-1" />
  <path
     id="path215"
     d="m 1245.21,2590.33 q -23.24,0 -36,-14.31 -12.76,-14.31 -12.75,-40.48 0,-26.85 12.94,-41.5 12.94,-14.65 36.87,-14.65 a 73,73 0 0 1 15.43,1.66 50.9,50.9 0 0 1 12.11,3.91 l -5,13.77 a 77.55,77.55 0 0 0 -11.72,-3.57 52.63,52.63 0 0 0 -11.23,-1.41 q -32.62,0 -32.62,41.6 0,19.73 8,30.27 8,10.54 23.58,10.55 a 72.1,72.1 0 0 0 27.44,-5.76 v 14.35 q -10.74,5.57 -27.05,5.57 z"
     class="cls-1" />
  <path
     id="path217"
     d="m 1342.87,2590.33 q -23.73,0 -37.45,-14.45 -13.72,-14.45 -13.72,-40.14 0,-25.87 12.74,-41.11 12.74,-15.24 34.23,-15.24 20.11,0 31.84,13.23 11.73,13.23 11.71,34.92 v 10.25 h -73.73 q 0.49,18.84 9.53,28.61 9.04,9.77 25.44,9.77 a 86.13,86.13 0 0 0 34.17,-7.23 v 14.45 a 85.55,85.55 0 0 1 -16.25,5.33 91.78,91.78 0 0 1 -18.51,1.61 z m -4.4,-97.36 q -12.88,0 -20.55,8.39 -7.67,8.39 -9,23.25 h 56 q 0,-15.33 -6.83,-23.49 -6.83,-8.16 -19.62,-8.15 z"
     class="cls-1" />
  <path
     id="path219"
     d="m 1598.24,2588.38 v -69.63 q 0,-12.8 -5.47,-19.19 -5.47,-6.39 -17,-6.4 -15.14,0 -22.36,8.69 -7.22,8.69 -7.23,26.76 v 59.77 H 1530 v -69.63 q 0,-12.8 -5.47,-19.19 -5.47,-6.39 -17.09,-6.4 -15.24,0 -22.31,9.13 -7.07,9.13 -7.13,29.98 v 56.16 h -16.22 v -107 H 1475 l 2.63,14.65 h 0.79 a 31.81,31.81 0 0 1 12.94,-12.2 39.51,39.51 0 0 1 18.7,-4.4 q 25.09,0 32.81,18.17 h 0.78 a 34.15,34.15 0 0 1 13.87,-13.29 43.05,43.05 0 0 1 20.7,-4.88 q 18.17,0 27.2,9.33 9.03,9.33 9,29.83 v 69.83 z"
     class="cls-1" />
  <path
     id="path221"
     d="m 1663.08,2481.34 v 69.44 q 0,13.08 6,19.53 6,6.45 18.65,6.44 16.8,0 24.56,-9.18 7.76,-9.18 7.77,-30 v -56.25 h 16.21 v 107 h -13.38 l -2.34,-14.36 h -0.88 a 32.35,32.35 0 0 1 -13.82,12.11 46.46,46.46 0 0 1 -20.17,4.2 q -19.53,0 -29.25,-9.28 -9.72,-9.28 -9.71,-29.69 v -70 z"
     class="cls-1" />
  <path
     id="path223"
     d="m 1786.81,2588.38 h -16.21 v -152 h 16.21 z"
     class="cls-1" />
  <path
     id="path225"
     d="m 1855.76,2576.95 a 52.18,52.18 0 0 0 8.3,-0.64 54.43,54.43 0 0 0 6.35,-1.31 v 12.4 a 29.81,29.81 0 0 1 -7.77,2.1 58.57,58.57 0 0 1 -9.22,0.83 q -31.07,0 -31.06,-32.72 v -63.67 H 1807 v -7.81 l 15.33,-6.74 6.84,-22.85 h 9.37 v 24.8 h 31.06 v 12.6 h -31.06 v 63 q 0,9.68 4.59,14.84 4.59,5.16 12.63,5.17 z"
     class="cls-1" />
  <path
     id="path227"
     d="m 1890.43,2452.34 q 0,-5.57 2.73,-8.15 a 10.14,10.14 0 0 1 13.58,0 c 1.88,1.76 2.83,4.46 2.83,8.11 0,3.65 -1,6.36 -2.83,8.15 a 9.44,9.44 0 0 1 -6.74,2.69 9.32,9.32 0 0 1 -6.84,-2.69 c -1.82,-1.75 -2.73,-4.46 -2.73,-8.11 z m 17.58,136 h -16.22 v -107 H 1908 Z"
     class="cls-1" />
  <path
     id="path229"
     d="m 1933.4,2542.18 v -14.84 h 47.95 v 14.84 z"
     class="cls-1" />
  <path
     id="path231"
     d="m 2041.31,2576.95 a 52.18,52.18 0 0 0 8.3,-0.64 54.88,54.88 0 0 0 6.35,-1.31 v 12.4 a 29.81,29.81 0 0 1 -7.77,2.1 58.69,58.69 0 0 1 -9.23,0.83 q -31,0 -31.05,-32.72 v -63.67 h -15.33 v -7.81 l 15.33,-6.74 6.83,-22.85 h 9.38 v 24.8 h 31.05 v 12.6 h -31.05 v 63 q 0,9.68 4.59,14.84 4.59,5.16 12.6,5.17 z"
     class="cls-1" />
  <path
     id="path233"
     d="m 2076,2452.34 c 0,-3.71 0.92,-6.43 2.74,-8.15 a 10.12,10.12 0 0 1 13.57,0 q 2.83,2.64 2.84,8.11 c 0,3.65 -0.95,6.36 -2.84,8.15 a 9.42,9.42 0 0 1 -6.74,2.69 9.32,9.32 0 0 1 -6.83,-2.69 c -1.85,-1.75 -2.74,-4.46 -2.74,-8.11 z m 17.58,136 h -16.21 v -107 h 16.21 z"
     class="cls-1" />
  <path
     id="path235"
     d="m 2173.14,2590.33 q -23.73,0 -37.45,-14.45 -13.72,-14.45 -13.69,-40.14 0,-25.87 12.74,-41.11 12.74,-15.24 34.23,-15.24 20.11,0 31.84,13.23 11.73,13.23 11.72,34.92 v 10.25 h -73.73 q 0.48,18.84 9.52,28.61 9.04,9.77 25.44,9.77 a 86.21,86.21 0 0 0 34.18,-7.23 v 14.45 a 85.86,85.86 0 0 1 -16.26,5.33 91.71,91.71 0 0 1 -18.54,1.61 z m -4.39,-97.36 q -12.9,0 -20.56,8.39 -7.66,8.39 -9,23.25 h 56 q 0,-15.33 -6.84,-23.49 -6.84,-8.16 -19.6,-8.15 z"
     class="cls-1" />
  <path
     id="path237"
     d="m 2289,2479.39 a 63.65,63.65 0 0 1 12.8,1.17 l -2.25,15 a 55.61,55.61 0 0 0 -11.72,-1.46 q -13,0 -22.22,10.54 -9.22,10.54 -9.22,26.27 v 57.43 h -16.22 v -107 h 13.38 l 1.86,19.83 h 0.78 a 46.93,46.93 0 0 1 14.36,-16.11 32.26,32.26 0 0 1 18.45,-5.67 z"
     class="cls-1" />
  <path
     id="path239"
     d="m 583.69,2788.38 -19.63,-62.8 q -1.86,-5.76 -6.93,-26.17 h -0.78 q -3.91,17.09 -6.84,26.37 l -20.22,62.6 h -18.75 l -29.19,-107 h 17 q 10.35,40.33 15.77,61.43 5.42,21.1 6.2,28.42 h 0.78 q 1.08,-5.57 3.47,-14.41 2.39,-8.84 4.15,-14 l 19.63,-61.43 h 17.58 l 19.14,61.43 a 208.16,208.16 0 0 1 7.42,28.22 h 0.78 a 103.79,103.79 0 0 1 2.1,-10.84 q 1.71,-7.32 20.36,-78.81 h 16.8 l -29.59,107 z"
     class="cls-1" />
  <path
     id="path241"
     d="m 697.07,2790.33 q -23.73,0 -37.45,-14.45 -13.72,-14.45 -13.72,-40.14 0,-25.87 12.74,-41.11 12.74,-15.24 34.23,-15.24 20.12,0 31.84,13.23 11.72,13.23 11.71,34.92 v 10.25 h -73.73 q 0.49,18.84 9.52,28.61 9.03,9.77 25.44,9.77 a 86.14,86.14 0 0 0 34.18,-7.23 v 14.45 a 85.86,85.86 0 0 1 -16.26,5.33 91.67,91.67 0 0 1 -18.5,1.61 z m -4.4,-97.36 q -12.89,0 -20.55,8.39 -7.66,8.39 -9,23.25 h 56 q 0,-15.33 -6.83,-23.49 -6.83,-8.16 -19.62,-8.15 z"
     class="cls-1" />
  <path
     id="path243"
     d="m 813.87,2679.59 q 21.09,0 32.76,14.4 11.67,14.4 11.67,40.77 0,26.37 -11.77,41 -11.77,14.63 -32.66,14.6 a 46.4,46.4 0 0 1 -19.1,-3.86 36,36 0 0 1 -14.5,-11.86 h -1.17 l -3.42,13.77 h -11.62 v -152 h 16.21 v 36.92 q 0,12.39 -0.78,22.26 h 0.78 q 11.32,-15.99 33.6,-16 z m -2.35,13.57 q -16.61,0 -23.92,9.52 -7.31,9.52 -7.33,32.08 0,22.56 7.52,32.28 7.52,9.72 24.12,9.71 14.94,0 22.27,-10.88 7.33,-10.88 7.32,-31.3 0,-20.9 -7.32,-31.16 -7.32,-10.26 -22.66,-10.25 z"
     class="cls-1" />
  <path
     id="path245"
     d="m 955.66,2759.18 q 0,14.94 -11.13,23 -11.13,8.06 -31.25,8.11 -21.29,0 -33.2,-6.74 v -15 a 79.48,79.48 0 0 0 16.55,6.15 69,69 0 0 0 17,2.25 q 12.69,0 19.53,-4 6.84,-4 6.84,-12.36 0,-6.24 -5.42,-10.69 -5.42,-4.45 -21.15,-10.5 -14.94,-5.57 -21.24,-9.71 a 29.08,29.08 0 0 1 -9.37,-9.43 24.56,24.56 0 0 1 -3.08,-12.6 24,24 0 0 1 10.65,-20.65 q 10.63,-7.58 29.2,-7.57 a 85.43,85.43 0 0 1 33.79,7 l -5.77,13.19 q -16.11,-6.65 -29.19,-6.64 -11.54,0 -17.39,3.61 -5.85,3.61 -5.86,10 a 12.14,12.14 0 0 0 2.2,7.32 21.77,21.77 0 0 0 7.08,5.77 q 4.89,2.73 18.75,7.91 19,6.93 25.73,14 6.73,7.07 6.73,17.58 z"
     class="cls-1" />
  <path
     id="path247"
     d="m 980.66,2652.34 q 0,-5.57 2.74,-8.15 a 10.12,10.12 0 0 1 13.57,0 q 2.83,2.64 2.83,8.11 c 0,3.65 -0.94,6.36 -2.83,8.15 a 9.42,9.42 0 0 1 -6.74,2.69 9.32,9.32 0 0 1 -6.83,-2.69 c -1.83,-1.75 -2.74,-4.46 -2.74,-8.11 z m 17.58,136 H 982 v -107 h 16.21 z"
     class="cls-1" />
  <path
     id="path249"
     d="m 1067.19,2776.95 a 52.18,52.18 0 0 0 8.3,-0.64 54.19,54.19 0 0 0 6.34,-1.31 v 12.4 a 29.6,29.6 0 0 1 -7.76,2.1 58.69,58.69 0 0 1 -9.23,0.83 q -31,0 -31,-32.72 v -63.67 h -15.33 v -7.81 l 15.33,-6.74 6.83,-22.85 h 9.33 v 24.8 h 31 v 12.6 h -31 v 63 q 0,9.68 4.59,14.84 4.59,5.16 12.6,5.17 z"
     class="cls-1" />
  <path
     id="path251"
     d="m 1148.44,2790.33 q -23.73,0 -37.46,-14.45 -13.73,-14.45 -13.72,-40.14 0,-25.87 12.75,-41.11 12.75,-15.24 34.23,-15.24 20.12,0 31.83,13.23 11.71,13.23 11.72,34.92 v 10.25 h -73.73 q 0.5,18.84 9.52,28.61 9.02,9.77 25.44,9.77 a 86.18,86.18 0 0 0 34.18,-7.23 v 14.45 a 85.86,85.86 0 0 1 -16.26,5.33 91.67,91.67 0 0 1 -18.5,1.61 z m -4.4,-97.36 q -12.88,0 -20.56,8.39 -7.68,8.39 -9,23.25 h 56 q 0,-15.33 -6.84,-23.49 -6.84,-8.16 -19.64,-8.15 z"
     class="cls-1" />
  <path
     id="path253"
     d="m 1317.19,2679.59 q 21.09,0 32.76,14.4 11.67,14.4 11.67,40.77 0,26.37 -11.77,41 -11.77,14.63 -32.66,14.6 a 46.4,46.4 0 0 1 -19.1,-3.86 36,36 0 0 1 -14.5,-11.86 h -1.17 l -3.42,13.77 h -11.62 v -152 h 16.21 v 36.92 q 0,12.39 -0.78,22.26 h 0.78 q 11.33,-15.99 33.6,-16 z m -2.35,13.57 q -16.6,0 -23.92,9.52 -7.32,9.52 -7.33,32.08 0,22.56 7.52,32.28 7.52,9.72 24.12,9.71 14.94,0 22.27,-10.88 7.33,-10.88 7.32,-31.3 0,-20.9 -7.32,-31.16 -7.32,-10.26 -22.66,-10.25 z"
     class="cls-1" />
  <path
     id="path255"
     d="m 1455.76,2788.38 -3.22,-15.24 h -0.78 q -8,10.07 -16,13.62 -8,3.55 -19.87,3.57 -15.93,0 -25,-8.2 -9.07,-8.2 -9,-23.34 0,-32.43 51.86,-34 l 18.25,-0.52 v -6.65 q 0,-12.59 -5.42,-18.6 -5.42,-6.01 -17.33,-6 -13.38,0 -30.28,8.2 l -5,-12.4 a 76.07,76.07 0 0 1 17.34,-6.74 74.93,74.93 0 0 1 18.89,-2.44 q 19.14,0 28.37,8.49 9.23,8.49 9.23,27.25 v 73.05 z m -36.62,-11.43 q 15.13,0 23.78,-8.3 8.65,-8.3 8.64,-23.24 v -9.67 l -16.21,0.68 q -19.33,0.69 -27.88,6 -8.55,5.31 -8.55,16.55 0,8.79 5.33,13.38 5.33,4.59 14.89,4.6 z"
     class="cls-1" />
  <path
     id="path257"
     d="m 1543.94,2790.33 q -23.24,0 -36,-14.31 -12.76,-14.31 -12.75,-40.48 0,-26.85 12.94,-41.5 12.94,-14.65 36.87,-14.65 a 73,73 0 0 1 15.43,1.66 50.9,50.9 0 0 1 12.11,3.91 l -5,13.77 a 77.2,77.2 0 0 0 -11.72,-3.57 52.63,52.63 0 0 0 -11.23,-1.41 q -32.62,0 -32.62,41.6 0,19.73 8,30.27 8,10.54 23.58,10.55 a 72.1,72.1 0 0 0 27.44,-5.76 v 14.35 q -10.74,5.57 -27.05,5.57 z"
     class="cls-1" />
  <path
     id="path259"
     d="m 1612.4,2733.59 a 189.83,189.83 0 0 1 12.79,-15.62 l 34.57,-36.63 H 1679 l -43.36,45.61 46.39,61.43 h -19.63 l -37.79,-50.59 -12.21,10.55 v 40 h -16 v -152 h 16 v 80.57 q 0,5.37 -0.78,16.6 z"
     class="cls-1" />
  <path
     id="path261"
     d="m 1716.6,2681.34 v 69.44 q 0,13.08 6,19.53 6,6.45 18.65,6.44 16.8,0 24.56,-9.18 7.76,-9.18 7.76,-30 v -56.25 h 16.21 v 107 h -13.37 l -2.35,-14.36 h -0.88 a 32.29,32.29 0 0 1 -13.82,12.11 46.41,46.41 0 0 1 -20.16,4.2 q -19.53,0 -29.25,-9.28 -9.72,-9.28 -9.72,-29.69 v -70 z"
     class="cls-1" />
  <path
     id="path263"
     d="m 1873.92,2790.33 a 46.35,46.35 0 0 1 -19.09,-3.86 36,36 0 0 1 -14.5,-11.86 h -1.17 a 143.72,143.72 0 0 1 1.17,17.77 v 44 h -16.21 v -155.04 h 13.18 l 2.25,14.65 h 0.78 a 37.64,37.64 0 0 1 14.55,-12.69 44.13,44.13 0 0 1 19,-3.91 q 21.3,0 32.87,14.55 11.57,14.55 11.57,40.82 0,26.37 -11.77,41 -11.77,14.63 -32.63,14.57 z m -2.34,-97.17 q -16.41,0 -23.73,9.08 -7.32,9.08 -7.52,28.91 v 3.61 q 0,22.56 7.52,32.28 7.52,9.72 24.12,9.71 13.86,0 21.73,-11.23 7.87,-11.23 7.86,-30.95 0,-20 -7.86,-30.72 -7.86,-10.72 -22.12,-10.69 z"
     class="cls-1" />
  <path
     id="path265"
     d="m 2015.72,2759.18 q 0,14.94 -11.13,23 -11.13,8.06 -31.25,8.11 -21.3,0 -33.21,-6.74 v -15 a 79.57,79.57 0 0 0 16.56,6.15 69,69 0 0 0 17,2.25 q 12.69,0 19.53,-4 6.84,-4 6.84,-12.36 0,-6.24 -5.42,-10.69 -5.42,-4.45 -21.15,-10.5 -14.94,-5.57 -21.24,-9.71 a 29,29 0 0 1 -9.37,-9.43 24.56,24.56 0 0 1 -3.08,-12.6 24,24 0 0 1 10.65,-20.65 q 10.64,-7.58 29.2,-7.57 a 85.35,85.35 0 0 1 33.78,7 l -5.76,13.19 q -16.11,-6.65 -29.2,-6.64 -11.52,0 -17.38,3.61 -5.86,3.61 -5.86,10 a 12.08,12.08 0 0 0 2.2,7.32 21.66,21.66 0 0 0 7.08,5.77 q 4.88,2.73 18.75,7.91 19,6.93 25.73,14 6.73,7.07 6.73,17.58 z"
     class="cls-1" />
</svg>
