<?xml version="1.0" encoding="UTF-8" standalone="no"?>
<svg
   xmlns:dc="http://purl.org/dc/elements/1.1/"
   xmlns:cc="http://creativecommons.org/ns#"
   xmlns:rdf="http://www.w3.org/1999/02/22-rdf-syntax-ns#"
   xmlns:svg="http://www.w3.org/2000/svg"
   xmlns="http://www.w3.org/2000/svg"
   xmlns:sodipodi="http://sodipodi.sourceforge.net/DTD/sodipodi-0.dtd"
   xmlns:inkscape="http://www.inkscape.org/namespaces/inkscape"
   id="Logo"
   viewBox="0 0 3192.6289 529.02026"
   version="1.1"
   sodipodi:docname="tractorbeam-wordmark.svg"
   width="3192.6289"
   height="529.02026"
   inkscape:version="0.92.5 (2060ec1f9f, 2020-04-08)">
  <metadata
     id="metadata989">
    <rdf:RDF>
      <cc:Work
         rdf:about="">
        <dc:format>image/svg+xml</dc:format>
        <dc:type
           rdf:resource="http://purl.org/dc/dcmitype/StillImage" />
        <dc:title></dc:title>
      </cc:Work>
    </rdf:RDF>
  </metadata>
  <sodipodi:namedview
     pagecolor="#ffffff"
     bordercolor="#666666"
     borderopacity="1"
     objecttolerance="10"
     gridtolerance="10"
     guidetolerance="10"
     inkscape:pageopacity="0"
     inkscape:pageshadow="2"
     inkscape:window-width="3840"
     inkscape:window-height="2032"
     id="namedview987"
     showgrid="false"
     inkscape:zoom="0.49472222"
     inkscape:cx="1599"
     inkscape:cy="426.21719"
     inkscape:window-x="0"
     inkscape:window-y="54"
     inkscape:window-maximized="1"
     inkscape:current-layer="Logo"
     fit-margin-top="0"
     fit-margin-left="0"
     fit-margin-right="0"
     fit-margin-bottom="0" />
  <defs
     id="defs932">
    <style
       id="style930">.cls-1,.cls-2{fill:#fff;}.cls-2{font-size:540px;font-family:Quam-Bold, Quam;font-weight:700;}.cls-3{letter-spacing:-0.11em;}.cls-4{letter-spacing:-0.03em;}.cls-5{letter-spacing:-0.01em;}.cls-6{letter-spacing:-0.01em;}.cls-7{letter-spacing:-0.01em;}</style>
  </defs>
  <g
     id="Saucer"
     transform="translate(-200.99998,-1535.49)">
    <path
       class="cls-1"
       d="m 254.94,1682.12 a 7.1,7.1 0 1 1 7.15,-7.12 7.08,7.08 0 0 1 -7.15,7.12 z m 0,0"
       id="path934"
       inkscape:connector-curvature="0"
       style="fill:#ffffff" />
    <path
       class="cls-1"
       d="m 254.94,1682.12 a 7.1,7.1 0 1 1 7.15,-7.13 7.08,7.08 0 0 1 -7.15,7.13 z m 0,0"
       id="path936"
       inkscape:connector-curvature="0"
       style="fill:#ffffff" />
    <path
       class="cls-1"
       d="m 356.14,1655.69 a 7.1,7.1 0 1 1 7.15,-7.12 7.11,7.11 0 0 1 -7.15,7.12 z m 0,0"
       id="path938"
       inkscape:connector-curvature="0"
       style="fill:#ffffff" />
    <path
       class="cls-1"
       d="m 356.14,1655.71 a 7.11,7.11 0 1 1 7.15,-7.15 7.13,7.13 0 0 1 -7.15,7.15 z m 0,0"
       id="path940"
       inkscape:connector-curvature="0"
       style="fill:#ffffff" />
    <path
       class="cls-1"
       d="m 456.84,1646 a 7.1,7.1 0 1 1 7.07,-7.07 7.1,7.1 0 0 1 -7.07,7.07 z m 0,0"
       id="path942"
       inkscape:connector-curvature="0"
       style="fill:#ffffff" />
    <path
       class="cls-1"
       d="m 456.84,1646 a 7.1,7.1 0 1 1 7.07,-7.06 7.09,7.09 0 0 1 -7.07,7.06 z m 0,0"
       id="path944"
       inkscape:connector-curvature="0"
       style="fill:#ffffff" />
    <path
       class="cls-1"
       d="m 560.51,1646 a 7.1,7.1 0 1 1 7.13,-7.07 7.15,7.15 0 0 1 -7.13,7.07 z m 0,0"
       id="path946"
       inkscape:connector-curvature="0"
       style="fill:#ffffff" />
    <path
       class="cls-1"
       d="m 560.51,1646 a 7.1,7.1 0 1 1 7.13,-7.06 7.14,7.14 0 0 1 -7.13,7.06 z m 0,0"
       id="path948"
       inkscape:connector-curvature="0"
       style="fill:#ffffff" />
    <path
       class="cls-1"
       d="m 660.16,1655.69 a 7.1,7.1 0 1 1 7.12,-7.12 7.11,7.11 0 0 1 -7.12,7.12 z m 0,0"
       id="path950"
       inkscape:connector-curvature="0"
       style="fill:#ffffff" />
    <path
       class="cls-1"
       d="m 660.16,1655.71 a 7.11,7.11 0 1 1 7.12,-7.15 7.12,7.12 0 0 1 -7.12,7.15 z m 0,0"
       id="path952"
       inkscape:connector-curvature="0"
       style="fill:#ffffff" />
    <path
       class="cls-1"
       d="m 764.88,1680.08 a 7.1,7.1 0 1 1 7.12,-7.08 7.09,7.09 0 0 1 -7.13,7.07 z m 0,0"
       id="path954"
       inkscape:connector-curvature="0"
       style="fill:#ffffff" />
    <path
       class="cls-1"
       d="m 764.88,1680.07 a 7.1,7.1 0 1 1 7.13,-7 7.08,7.08 0 0 1 -7.13,7 z m 0,0"
       id="path956"
       inkscape:connector-curvature="0"
       style="fill:#ffffff" />
    <path
       class="cls-1"
       d="m 645,1622.13 c -12.93,-50.45 -68.83,-86.63 -135,-86.63 -66.17,0 -122,36.18 -135,86.63 -97.64,13.36 -174,41.27 -174,80.13 a 17.33,17.33 0 0 0 0.22,2.77 c 4.23,44.52 109.88,74.19 230.58,83.23 1.05,-3.87 2.12,-7.76 3.17,-11.72 C 324,1768.9 245.83,1745 221.31,1719.3 c 29,-35.55 147,-60.28 288.75,-60.28 142,0 260,24.32 289.45,59.43 -23.54,26.07 -102.12,50.38 -214.34,58.09 1.07,4 2.12,7.85 3.18,11.72 123.24,-9.24 230.81,-39.92 230.81,-86 0,-38.86 -76.4,-66.77 -174.13,-80.13 z m -135,-74.47 c 58.36,0 108,30 121.89,72.56 -22.83,-2.75 -46.49,-4.6 -70.8,-5.72 -4.45,-0.22 -8.9,-0.36 -13.28,-0.56 -3,-0.07 -6,-0.22 -8.92,-0.29 -9.61,-0.29 -19.29,-0.42 -28.89,-0.42 -9.6,0 -19.23,0.13 -28.91,0.42 -3,0.07 -5.86,0.22 -8.83,0.29 -4.45,0.13 -8.9,0.34 -13.35,0.56 -24.31,1.12 -48,3 -70.75,5.64 13.93,-42.45 63.53,-72.48 121.84,-72.48 z m 295.38,159.19 c -36.81,-36.18 -152.92,-60.06 -295.38,-60.06 -141.91,0 -257.72,24.1 -294.48,60.64 -1.54,-2.13 -2.39,-3.54 -2.39,-5.17 0,-26.41 60.35,-54.06 159.14,-67.9 l -0.07,0.13 8.54,-1 a 1002.68,1002.68 0 0 1 129.26,-8 1003.47,1003.47 0 0 1 129.31,8 l 8.49,1 v -0.13 c 98.72,13.84 159.14,41.49 159.14,67.9 a 7.6,7.6 0 0 1 -1.56,4.59 z m 0,0"
       id="path958"
       inkscape:connector-curvature="0"
       style="fill:#ffffff" />
    <path
       class="cls-1"
       d="m 645,1622.13 c -12.93,-50.46 -68.83,-86.64 -135,-86.64 -66.17,0 -122,36.18 -135,86.64 -97.64,13.35 -174,41.26 -174,80.14 a 17,17 0 0 0 0.22,2.75 c 4.23,44.52 109.88,74.21 230.58,83.25 1.05,-3.89 2.12,-7.77 3.17,-11.74 C 324,1768.9 245.83,1745 221.31,1719.29 c 29,-35.54 147,-60.27 288.75,-60.27 142,0 260,24.31 289.45,59.42 -23.54,26.09 -102.12,50.39 -214.34,58.09 1.07,4 2.12,7.85 3.18,11.74 123.24,-9.26 230.81,-39.92 230.81,-86 0,-38.88 -76.4,-66.79 -174.13,-80.14 z m -135,-74.48 c 58.36,0 108,30 121.89,72.58 -22.83,-2.77 -46.49,-4.6 -70.8,-5.74 -4.45,-0.21 -8.9,-0.34 -13.28,-0.56 -3,-0.07 -6,-0.21 -8.92,-0.29 -9.61,-0.27 -19.29,-0.41 -28.89,-0.41 -9.6,0 -19.23,0.14 -28.91,0.41 -3,0.08 -5.86,0.22 -8.83,0.29 -4.45,0.15 -8.9,0.35 -13.35,0.56 -24.31,1.14 -48,3 -70.75,5.67 13.93,-42.48 63.53,-72.51 121.84,-72.51 z m 295.38,159.22 c -36.81,-36.19 -152.92,-60.08 -295.38,-60.08 -141.91,0 -257.72,24.09 -294.48,60.64 -1.54,-2.12 -2.39,-3.53 -2.39,-5.16 0,-26.43 60.35,-54 159.14,-67.91 l -0.07,0.14 8.54,-1.06 a 1000.94,1000.94 0 0 1 129.26,-8 1001.73,1001.73 0 0 1 129.31,8 l 8.49,1.06 v -0.14 c 98.72,13.86 159.14,41.48 159.14,67.91 a 7.67,7.67 0 0 1 -1.56,4.6 z m 0,0"
       id="path960"
       inkscape:connector-curvature="0"
       style="fill:#ffffff" />
    <path
       class="cls-1"
       d="M 510.06,2064.51 A 346.31,346.31 0 0 1 366.82,2033.7 l -4.82,-2.19 1.41,-5.1 c 7.71,-26.78 15.56,-53.5 23.47,-80.49 20.91,-71.22 42.55,-144.8 63.82,-230.51 l 1.12,-4.67 h 116.53 l 1.14,4.67 c 21.27,85.71 42.89,159.36 63.8,230.58 7.93,27 15.76,53.64 23.47,80.42 l 1.41,5.1 -4.8,2.19 a 346.87,346.87 0 0 1 -143.31,30.81 z m -133.42,-39.78 a 336.06,336.06 0 0 0 266.84,0 c -7.15,-25.1 -14.49,-50 -21.91,-75.33 -20.57,-70 -41.84,-142.4 -62.83,-226.43 h -97.38 c -21,84 -42.19,156.32 -62.74,226.35 -7.49,25.29 -14.78,50.31 -22,75.41 z m 0,0"
       id="path962"
       inkscape:connector-curvature="0"
       style="fill:#ffffff" />
    <path
       class="cls-1"
       d="m 510.06,2064.5 a 346.15,346.15 0 0 1 -143.24,-30.81 l -4.82,-2.19 1.41,-5.08 c 7.71,-26.79 15.56,-53.49 23.47,-80.48 20.91,-71.25 42.55,-144.8 63.82,-230.54 l 1.12,-4.64 h 116.53 l 1.14,4.64 c 21.27,85.74 42.89,159.37 63.8,230.59 7.93,27 15.76,53.64 23.47,80.43 l 1.41,5.08 -4.8,2.19 a 346.71,346.71 0 0 1 -143.31,30.81 z m -133.42,-39.78 a 336.06,336.06 0 0 0 266.84,0 c -7.15,-25.09 -14.49,-50 -21.91,-75.33 C 601,1879.36 579.73,1807 558.74,1723 h -97.38 c -21,84 -42.19,156.32 -62.74,226.35 -7.49,25.29 -14.78,50.31 -22,75.4 z m 0,0"
       id="path964"
       inkscape:connector-curvature="0"
       style="fill:#ffffff" />
  </g>
  <text
     id="Name"
     class="cls-2"
     style="font-weight:700;font-size:540px;font-family:Quam-Bold, Quam;fill:#ffffff"
     x="687.04999"
     y="443.32001">
    <tspan
       class="cls-3"
       id="tspan967"
       style="letter-spacing:-0.11em">T</tspan>
    <tspan
       class="cls-4"
       x="906.29004"
       y="443.32001"
       id="tspan969"
       style="letter-spacing:-0.03em">r</tspan>
    <tspan
       x="1072.0699"
       y="443.32001"
       id="tspan971">ac</tspan>
    <tspan
       class="cls-5"
       x="1530.52"
       y="443.32001"
       id="tspan973"
       style="letter-spacing:-0.01em">t</tspan>
    <tspan
       x="1755.16"
       y="443.32001"
       id="tspan975">o</tspan>
    <tspan
       class="cls-6"
       x="1990.5901"
       y="443.32001"
       id="tspan977"
       style="letter-spacing:-0.01em">r</tspan>
    <tspan
       x="2163.9299"
       y="443.32001"
       id="tspan979">b</tspan>
    <tspan
       class="cls-7"
       x="2400.99"
       y="443.32001"
       id="tspan981"
       style="letter-spacing:-0.01em">e</tspan>
    <tspan
       x="2631.5701"
       y="443.32001"
       id="tspan983">am</tspan>
  </text>
</svg>
